<svg xmlns="http://www.w3.org/2000/svg" viewBox="0 0 96 96" role="img" aria-label="Neocaridina Icon">
  <rect width="96" height="96" rx="14" fill="#f4f6f5"/>
  <ellipse cx="48" cy="78" rx="24" ry="4" fill="#2f5d56" opacity=".12"/>
  <path d="M18 54c8-18 30-28 54-20 10 4 18 12 22 22-10 4-20 6-30 4-8-2-14-4-18-6Z" fill="#2f5d56"/>
  <path d="M62 48c8-6 14-8 20-5-2 6-8 11-15 14 7 4 12 9 14 16-7 2-14-2-20-12Z" fill="#4b7c74"/>
  <path d="M16 52c-6-5-10-10-12-18M18 56C10 53 5 49 2 44" fill="none" stroke="#1c2b28" stroke-width="2.2" stroke-linecap="round"/>
  <circle cx="26" cy="46" r="2.6" fill="#1c2b28"/>
  <path d="M34 38c10-6 20-8 30-4M36 58c-6 6-10 12-12 18M50 60c-4 5-6 10-7 15M64 58c2 6 5 11 9 15" fill="none" stroke="#1c2b28" stroke-width="2" stroke-linecap="round" opacity=".5"/>
</svg>
