<svg xmlns="http://www.w3.org/2000/svg" viewBox="0 0 96 96" role="img" aria-label="Shrimpverse Icon">
  <rect width="96" height="96" rx="14" fill="#f4f6f5"/>
  <g transform="translate(6 6) scale(2.3333)">
    <!-- Orbit rings -->
    <circle cx="18" cy="18" r="17" fill="none" stroke="#2fc4b5" stroke-width="0.7" opacity="0.5"/>
    <circle cx="18" cy="18" r="11.5" fill="none" stroke="#2fc4b5" stroke-width="0.5" stroke-dasharray="2 3.5" opacity="0.3"/>
    <!-- Rostrum -->
    <path d="M9 14.5 L4.3 11 L9.6 13.2 Z" fill="#2fc4b5" opacity="0.85"/>
    <!-- Cephalothorax -->
    <path d="M8 19 C7.5 14.5 11 12 15.5 11.8 C19 11.6 21.5 12.8 22.5 15.5 C23 17 22.5 19 21 19.8 C18 21.5 12.5 22 9.5 20.5 C8.5 20 8 19.6 8 19 Z" fill="#2fc4b5" opacity="0.9"/>
    <!-- Abdomen segment plates -->
    <path d="M20.5 13.5 C23.5 12.8 25.8 13.8 26.5 16.3 C24.8 17.2 22.3 16.8 20.8 15 Z" fill="#2fc4b5" opacity="0.82"/>
    <path d="M23.5 15.5 C26.5 15 28.5 16.3 28.8 19 C27 19.6 24.5 19 23 17 Z" fill="#2fc4b5" opacity="0.72"/>
    <path d="M25.8 18 C28.8 17.8 30.5 19.3 30.2 22 C28.3 22.2 26.2 21.2 25 19.3 Z" fill="#2fc4b5" opacity="0.62"/>
    <!-- Uropod fan tail -->
    <path d="M28.8 20 Q32.6 18.8 34 20.3 Q32.2 21.5 33.5 23.4 Q31.2 23.8 29 22 Z" fill="#2fc4b5" opacity="0.62"/>
    <!-- Sheen -->
    <path d="M11 14.5 Q15.5 12.6 20.5 13.8" fill="none" stroke="rgba(255,255,255,0.5)" stroke-width="1.2" stroke-linecap="round"/>
    <!-- Legs -->
    <g stroke="#176f66" stroke-width="1" stroke-linecap="round" opacity="0.75" fill="none">
      <path d="M13 20.5 L11.5 24.5"/>
      <path d="M16 21.5 L14.8 25"/>
      <path d="M19 21 L18 24.5"/>
    </g>
    <!-- Antennae -->
    <g stroke="#176f66" stroke-width="0.9" stroke-linecap="round" opacity="0.7" fill="none">
      <path d="M9.5 15 Q5.5 10 3.5 6.5"/>
      <path d="M10.5 14 Q7 9.5 5.5 6"/>
    </g>
    <!-- Eye -->
    <circle cx="11.5" cy="16.3" r="1.6" fill="#15554e"/>
    <circle cx="12" cy="15.8" r="0.55" fill="rgba(255,255,255,0.9)"/>
  </g>
</svg>
