<svg xmlns="http://www.w3.org/2000/svg" viewBox="0 0 96 96" role="img" aria-label="Neocaridina Icon">
  <rect width="96" height="96" rx="18" fill="#ecfdf5"/>
  <path d="M20 51c8-23 34-34 62-18 3 19-13 33-39 30-10-1-18-5-23-12Z" fill="#059669"/>
  <path d="M68 44c8-9 16-12 23-8-2 8-7 14-16 18 8 5 13 11 15 19-8 3-16-2-24-15Z" fill="#fbbf24"/>
  <path d="M18 50c-8-7-13-14-15-23M19 54C10 51 4 47 1 41" fill="none" stroke="#064e3b" stroke-width="3" stroke-linecap="round"/>
  <circle cx="28" cy="43" r="3" fill="#064e3b"/>
  <path d="M38 32c12-8 25-10 38-5M39 62c-8 8-14 16-17 25M54 65c-5 7-8 14-9 22M70 62c2 8 6 15 12 20" fill="none" stroke="#16201f" stroke-width="3" stroke-linecap="round" opacity=".58"/>
</svg>
